<?xml version="1.0" encoding="utf-8"?>
<!-- Generator: Adobe Illustrator 19.2.1, SVG Export Plug-In . SVG Version: 6.00 Build 0)  -->
<svg version="1.1" id="Ebene_1" xmlns="http://www.w3.org/2000/svg" xmlns:xlink="http://www.w3.org/1999/xlink" x="0px" y="0px"
	 viewBox="0 0 16 16" style="enable-background:new 0 0 16 16;" xml:space="preserve">
<style type="text/css">
	.st0{fill:#FFFFFF;}
	.st1{opacity:0.7;fill:#6B9EBA;enable-background:new    ;}
	.st2{fill:#1A171B;}
	.st3{fill:#DFECEF;enable-background:new    ;}
</style>
<g>
	<rect x="2.1" y="9" class="st0" width="13.9" height="7"/>
	<g>
		<path d="M2.8,14.6l1.5-2.2L3,10.3h1l0.9,1.4l0.8-1.4h1l-1.3,2.1l1.5,2.2h-1l-1-1.5l-1,1.5C3.9,14.6,2.8,14.6,2.8,14.6z"/>
		<path d="M7.2,14.6v-4.3h1.3l0.8,2.9l0.8-2.9h1.3v4.3h-0.8v-3.4l-0.9,3.4H8.9l-0.8-3.4v3.4H7.2z"/>
		<path d="M12.3,14.6v-4.3h0.9v3.5h2.2v0.7h-3.1V14.6z"/>
	</g>
</g>
<g id="XMLID_353_">
	<g id="XMLID_354_">
		<circle id="XMLID_355_" class="st1" cx="6.3" cy="4.9" r="4.4"/>
		<path class="st2" d="M11.1,4.1c-0.2-1.3-0.9-2.4-2-3.2c-1-0.7-2.3-1-3.6-0.8C2.9,0.5,1.1,3,1.5,5.6c0.2,1,0.7,2,1.4,2.7
			C2.8,8.4,2.7,8.5,2.6,8.6L0.2,12c-0.3,0.4-0.2,1.1,0.2,1.4c0.2,0.1,0.4,0.2,0.6,0.2c0.3,0,0.6-0.1,0.8-0.4l2.4-3.4
			c0.1-0.1,0.1-0.3,0.2-0.5C5,9.6,5.6,9.7,6.3,9.7c0.3,0,0.5,0,0.8-0.1c1.3-0.2,2.4-0.9,3.2-2C11,6.6,11.3,5.4,11.1,4.1z M9.4,7.1
			C8.8,8,7.9,8.5,6.9,8.7S4.9,8.6,4,8C3.2,7.4,2.7,6.5,2.5,5.5C2.2,3.4,3.6,1.4,5.7,1.1C5.9,1,6.1,1,6.3,1c1.9,0,3.5,1.3,3.8,3.2
			C10.3,5.3,10,6.3,9.4,7.1z"/>
	</g>
	<path class="st3" d="M8.6,5.2C8.3,5.2,8.1,5,8.1,4.8C8,4.5,7.8,4.1,7.6,3.8C7.4,3.5,7.2,3.3,7,3.3C6.7,3.3,6.5,3,6.5,2.7
		s0.3-0.5,0.6-0.4c0.5,0.1,1,0.4,1.4,0.9C8.7,3.6,8.9,4.1,9,4.5C9.1,4.8,9,5.1,8.6,5.2C8.7,5.2,8.6,5.2,8.6,5.2z"/>
</g>
</svg>
