<?xml version="1.0" encoding="utf-8"?>
<!-- Generator: Adobe Illustrator 19.2.1, SVG Export Plug-In . SVG Version: 6.00 Build 0)  -->
<svg version="1.1" id="Ebene_1" xmlns="http://www.w3.org/2000/svg" xmlns:xlink="http://www.w3.org/1999/xlink" x="0px" y="0px"
	 viewBox="0 0 16 16" style="enable-background:new 0 0 16 16;" xml:space="preserve">
<style type="text/css">
	.st0{fill:#FFFFFF;}
</style>
<g>
	<rect x="1.1" y="7.9" class="st0" width="13.9" height="7"/>
	<g>
		<path d="M1.8,13.6l1.4-2.3l-1.3-2h1l0.9,1.4l0.8-1.4h1l-1.3,2.1l1.5,2.2h-1l-1-1.5l-1,1.5H1.8z"/>
		<path d="M6.2,13.6V9.3h1.3l0.8,2.9L9,9.3h1.3v4.3H9.5v-3.4l-0.9,3.4H7.8L7,10.2v3.4C7,13.6,6.2,13.6,6.2,13.6z"/>
		<path d="M11.2,13.6V9.3h0.9v3.5h2.2v0.7h-3.1V13.6z"/>
	</g>
</g>
<polygon id="XMLID_361_" points="12.2,4.7 12.2,1.5 12.2,1.5 12.2,1.5 9,1.5 9,2.2 11.4,2.2 11.4,4.7 10.2,4.7 11.8,7.5 13.4,4.7 
	"/>
<g id="XMLID_140_">
	<path id="XMLID_141_" d="M2,5c0.2,0,1.1-0.1,1.1-0.1s0.2,0.5,0.3,0.7C3.6,5.9,4,6,4.4,6c0.5,0,1.3-0.3,1.1-1
		C5.3,4.5,4.3,4.4,3.8,4.3C3.2,4.1,2.5,3.9,2.3,3.2C2,2.5,2.3,1.7,2.9,1.4c1.3-0.8,3.5-0.3,3.5,1.4c-0.2,0-1.1,0-1.1,0
		S5.2,2.4,5,2.2C4.8,2,4.5,2,4.3,2C3.7,2,2.9,2.4,3.6,3C4,3.4,4.9,3.3,5.5,3.6C7,4.2,7,6.2,5.5,6.8C3.9,7.4,2.2,6.7,2,5z"/>
</g>
</svg>
