<?xml version="1.0" encoding="utf-8"?>
<!-- Generator: Adobe Illustrator 19.2.1, SVG Export Plug-In . SVG Version: 6.00 Build 0)  -->
<svg version="1.1" id="Ebene_1" xmlns="http://www.w3.org/2000/svg" xmlns:xlink="http://www.w3.org/1999/xlink" x="0px" y="0px"
	 viewBox="0 0 16 16" style="enable-background:new 0 0 16 16;" xml:space="preserve">
<style type="text/css">
	.st0{fill:#FFFFFF;}
</style>
<g id="XMLID_372_">
	<rect id="XMLID_376_" x="11" y="1" class="st0" width="4" height="14"/>
	<path id="XMLID_373_" d="M10,0v16h6V0H10z M15,15h-4V1h4V15z"/>
</g>
<g id="XMLID_1_">
	<rect id="XMLID_5_" x="1" y="1" class="st0" width="4" height="14"/>
	<path id="XMLID_2_" d="M0,0v16h6V0H0z M5,15H1V1h4V15z"/>
</g>
<g>
	<rect x="1" y="8" class="st0" width="14" height="7"/>
	<g>
		<path d="M1.8,13.6l1.5-2.2L1.9,9.3h1l0.9,1.4l0.8-1.4h1l-1.3,2.1l1.5,2.2h-1l-1-1.5l-1,1.5C2.8,13.6,1.8,13.6,1.8,13.6z"/>
		<path d="M6.2,13.6V9.3h1.3l0.8,2.9L9,9.3h1.3v4.3H9.5v-3.4l-0.9,3.4H7.8L7,10.2v3.4H6.2z"/>
		<path d="M11.2,13.6V9.4h0.9v3.5h2.2v0.7C14.3,13.6,11.2,13.6,11.2,13.6z"/>
	</g>
</g>
<polygon id="XMLID_355_" points="10.8,3.4 8.7,3.4 8.7,1.3 7.3,1.3 7.3,3.4 5.2,3.4 5.2,4.8 7.3,4.8 7.3,6.9 8.7,6.9 8.7,4.8 
	10.8,4.8 "/>
</svg>
