<?xml version="1.0" encoding="utf-8"?>
<!-- Generator: Adobe Illustrator 19.2.1, SVG Export Plug-In . SVG Version: 6.00 Build 0)  -->
<svg version="1.1" id="Ebene_1" xmlns="http://www.w3.org/2000/svg" xmlns:xlink="http://www.w3.org/1999/xlink" x="0px" y="0px"
	 viewBox="0 0 16 16" style="enable-background:new 0 0 16 16;" xml:space="preserve">
<style type="text/css">
	.st0{fill:#FFFFFF;}
</style>
<g id="XMLID_372_">
	<rect id="XMLID_376_" x="11" y="1" class="st0" width="4" height="14"/>
	<path id="XMLID_373_" d="M10,0v16h6V0H10z M15,15h-4V1h4V15z"/>
</g>
<g id="XMLID_370_">
	<polygon id="XMLID_371_" points="8.3,4.3 4.4,2 4.4,3.7 0.7,3.7 0.7,4.8 4.4,4.8 4.4,6.5 	"/>
</g>
<g>
	<rect y="8" class="st0" width="13.9" height="7"/>
	<g>
		<path d="M0.7,13.6l1.5-2.2L0.8,9.3h1l0.9,1.4l0.8-1.4h1l-1.3,2.1l1.5,2.2h-1l-1-1.5l-1,1.5C1.7,13.6,0.7,13.6,0.7,13.6z"/>
		<path d="M5.1,13.6V9.3h1.3l0.8,2.9L8,9.3h1.3v4.3H8.5v-3.4l-0.9,3.4H6.8L6,10.2v3.4H5.1z"/>
		<path d="M10.2,13.6V9.4H11v3.5h2.2v0.7C13.2,13.6,10.2,13.6,10.2,13.6z"/>
	</g>
</g>
</svg>
