<?xml version="1.0" encoding="utf-8"?>
<!-- Generator: Adobe Illustrator 19.2.1, SVG Export Plug-In . SVG Version: 6.00 Build 0)  -->
<svg version="1.1" id="Ebene_1" xmlns="http://www.w3.org/2000/svg" xmlns:xlink="http://www.w3.org/1999/xlink" x="0px" y="0px"
	 viewBox="0 0 16 16" style="enable-background:new 0 0 16 16;" xml:space="preserve">
<style type="text/css">
	.st0{fill:#FFFFFF;}
</style>
<g id="XMLID_370_">
	<polygon id="XMLID_371_" points="14.3,4.3 10.5,2 10.5,3.7 6.8,3.7 6.8,4.8 10.5,4.8 10.5,6.5 	"/>
</g>
<g>
	<rect x="1.1" y="8" class="st0" width="13.9" height="7"/>
	<g>
		<path d="M1.8,13.6l1.5-2.2L1.9,9.3h1l0.9,1.4l0.8-1.4h1l-1.3,2.1l1.5,2.2h-1l-1-1.5l-1,1.5C2.8,13.6,1.8,13.6,1.8,13.6z"/>
		<path d="M6.2,13.6V9.3h1.3l0.8,2.9L9,9.3h1.3v4.3H9.5v-3.4l-0.9,3.4H7.8L7,10.2v3.4H6.2z"/>
		<path d="M11.2,13.6V9.4h0.9v3.5h2.2v0.7C14.3,13.6,11.2,13.6,11.2,13.6z"/>
	</g>
</g>
</svg>
