<?xml version="1.0" encoding="utf-8"?>
<!-- Generator: Adobe Illustrator 19.2.1, SVG Export Plug-In . SVG Version: 6.00 Build 0)  -->
<svg version="1.1" id="Ebene_1" xmlns="http://www.w3.org/2000/svg" xmlns:xlink="http://www.w3.org/1999/xlink" x="0px" y="0px"
	 viewBox="0 0 16 16" style="enable-background:new 0 0 16 16;" xml:space="preserve">
<style type="text/css">
	.st0{fill:#FFFFFF;}
</style>
<g>
	<rect x="1.1" y="7.6" class="st0" width="13.9" height="7"/>
	<g>
		<path d="M1.8,13.3L3.2,11L1.9,9h1l0.9,1.4L4.6,9h1l-1.3,2.1l1.5,2.2h-1l-1-1.5l-1,1.5H1.8z"/>
		<path d="M6.2,13.3V9h1.3l0.8,2.9L9,9h1.3v4.3H9.5V9.9l-0.9,3.4H7.8L7,9.9v3.4C7,13.3,6.2,13.3,6.2,13.3z"/>
		<path d="M11.2,13.3V9h0.9v3.5h2.2v0.7h-3.1V13.3z"/>
	</g>
</g>
<g>
	<path d="M1,6.1l1.5-2.2L1.1,1.9h1L3,3.2l0.8-1.4h1L3.5,3.9l1.5,2.2H4L3,4.6L2,6.1C2,6.1,1,6.1,1,6.1z"/>
	<path d="M5,4.7l0.8-0.1C5.9,5.4,7.4,6,7.6,5c0.1-0.8-1.7-0.7-2-1.2C4,1.8,8.1,0.9,8.3,3.1H7.4c0-0.6-0.8-0.8-1.3-0.5
		c-0.7,0.5,1.2,0.9,1.3,1c0.7,0.2,1.2,0.7,1,1.5C8.1,6.9,5.2,6.4,5,4.7z"/>
	<path d="M9.1,6.1V2H10v3.4H12v0.7H9.1z"/>
	<path d="M13,6.1V2.7h-1.3V1.9h3.4v0.7h-1.3v3.5H13z"/>
</g>
</svg>
