<?xml version="1.0" encoding="utf-8"?>
<!-- Generator: Adobe Illustrator 19.2.1, SVG Export Plug-In . SVG Version: 6.00 Build 0)  -->
<svg version="1.1" id="Ebene_1" xmlns="http://www.w3.org/2000/svg" xmlns:xlink="http://www.w3.org/1999/xlink" x="0px" y="0px"
	 viewBox="0 0 16 16" style="enable-background:new 0 0 16 16;" xml:space="preserve">
<style type="text/css">
	.st0{fill:#FFFFFF;}
</style>
<g id="XMLID_372_">
	<rect id="XMLID_376_" x="1" y="1" class="st0" width="4" height="14"/>
	<path id="XMLID_373_" d="M0,0v16h6V0H0z M5,15H1V1h4V15z"/>
</g>
<g id="XMLID_370_">
	<polygon id="XMLID_371_" points="15,4.3 11.1,2 11.1,3.7 7.4,3.7 7.4,4.8 11.1,4.8 11.1,6.5 	"/>
</g>
<g>
	<rect x="2.1" y="8" class="st0" width="13.9" height="7"/>
	<g>
		<path d="M2.8,13.6l1.5-2.2L2.9,9.3h1l0.9,1.4l0.8-1.4h1l-1.3,2.1l1.5,2.2h-1l-1-1.5l-1,1.5C3.8,13.6,2.8,13.6,2.8,13.6z"/>
		<path d="M7.2,13.6V9.3h1.3l0.8,2.9l0.8-2.9h1.3v4.3h-0.8v-3.4l-0.9,3.4H8.9l-0.8-3.4v3.4H7.2z"/>
		<path d="M12.3,13.6V9.4h0.8v3.5h2.2v0.7C15.3,13.6,12.3,13.6,12.3,13.6z"/>
	</g>
</g>
</svg>
